<svg xmlns="http://www.w3.org/2000/svg" viewBox="0 0 259.27 259.27"><path d="M257.134 84.173c-.012-.012-.02-.026-.032-.038l-.027-.027-.004-.004L183.9 10.139a7.502 7.502 0 0 0-5.332-2.226H80.701a7.502 7.502 0 0 0-5.332 2.226L2.198 84.105l-.004.004-.027.027c-.012.012-.02.026-.032.038A7.543 7.543 0 0 0 0 89.41v154.447a7.5 7.5 0 0 0 7.5 7.5h244.27a7.5 7.5 0 0 0 7.5-7.5V89.41c0-1.862-.725-3.79-2.136-5.237zM137.135 22.912h38.303l58.363 58.998h-96.666V22.912zm-53.303 0h38.303V81.91H25.469l58.363-58.998zM244.27 236.357H15V96.91h229.27v139.447z"/><path d="M37.5 221.358h184.27a7.5 7.5 0 0 0 7.5-7.5v-60.81a7.5 7.5 0 0 0-7.5-7.5H37.5a7.499 7.499 0 0 0-7.5 7.5v60.81c0 4.143 3.357 7.5 7.5 7.5zm7.5-60.81h169.27v45.81H45v-45.81zm58.169-19.286h52.932c10.477 0 18.999-8.522 18.999-18.999s-8.522-18.999-18.999-18.999h-52.932c-10.477 0-18.999 8.522-18.999 18.999s8.522 18.999 18.999 18.999zm0-22.998h52.932c2.205 0 3.999 1.794 3.999 3.999s-1.794 3.999-3.999 3.999h-52.932c-2.205 0-3.999-1.794-3.999-3.999s1.794-3.999 3.999-3.999z"/><path d="M165.135 167.12h-71c-4.143 0-7.5 3.357-7.5 7.5s3.357 7.5 7.5 7.5h71c4.143 0 7.5-3.357 7.5-7.5a7.5 7.5 0 0 0-7.5-7.5zm0 17.667h-71c-4.143 0-7.5 3.357-7.5 7.5s3.357 7.5 7.5 7.5h71c4.143 0 7.5-3.357 7.5-7.5a7.5 7.5 0 0 0-7.5-7.5z"/></svg>