<svg xmlns="http://www.w3.org/2000/svg" viewBox="0 0 303.44 303.44"><path d="M277.4 59.366h-38.525l-7.727-29.78a18.466 18.466 0 0 0-17.875-13.83H90.167a18.467 18.467 0 0 0-17.875 13.83v-.001l-7.727 29.781H26.04C11.682 59.366 0 71.046 0 85.404v176.24c0 14.358 11.682 26.04 26.04 26.04H277.4c14.358 0 26.04-11.682 26.04-26.04V85.404c0-14.358-11.681-26.038-26.04-26.038zM86.812 33.351a3.466 3.466 0 0 1 3.355-2.597h123.105a3.465 3.465 0 0 1 3.355 2.597l6.75 26.014H215.7l-3.6-15.957a7.5 7.5 0 0 0-7.316-5.849H98.656a7.5 7.5 0 0 0-7.316 5.849l-3.601 15.957h-7.677l6.75-26.014zm113.512 26.015h-97.207l1.536-6.806h94.136l1.535 6.806zm88.115 202.278c.001 6.088-4.951 11.04-11.039 11.04H26.04c-6.087 0-11.04-4.952-11.04-11.04v-91.881c7.874 6.998 18.232 11.261 29.57 11.261h69.7v11.841a7.502 7.502 0 0 0 2.842 5.879l29.95 23.73a7.501 7.501 0 0 0 9.315 0l29.95-23.73a7.502 7.502 0 0 0 2.842-5.879v-11.841h69.7c11.339 0 21.696-4.263 29.57-11.261v91.881zM129.27 189.238v-31.814h44.9v31.814l-22.45 17.788-22.45-17.788zm159.17-52.783c0 16.305-13.265 29.569-29.57 29.569h-69.7v-16.1a7.5 7.5 0 0 0-7.5-7.5h-59.9a7.5 7.5 0 0 0-7.5 7.5v16.1h-69.7c-16.305 0-29.57-13.265-29.57-29.569V85.404c0-6.087 4.953-11.039 11.04-11.039H277.4c6.087 0 11.04 4.952 11.04 11.039v51.051z"/></svg>