<svg xmlns="http://www.w3.org/2000/svg" viewBox="0 0 334.334 334.334"><path d="M92.805 306.132h25.429c4.143 0 7.5-3.357 7.5-7.5v-63.571a7.5 7.5 0 0 0-7.5-7.5H92.805a7.499 7.499 0 0 0-7.5 7.5v63.571c0 4.143 3.357 7.5 7.5 7.5zm7.5-63.571h10.429v16.786h-10.429v-16.786zm0 31.786h10.429v16.785h-10.429v-16.785zM216.1 306.132h25.429c4.143 0 7.5-3.357 7.5-7.5v-63.571c0-4.143-3.357-7.5-7.5-7.5H216.1a7.499 7.499 0 0 0-7.5 7.5v63.571c0 4.143 3.357 7.5 7.5 7.5zm7.501-63.571h10.429v16.786h-10.429v-16.786zm-.001 31.786h10.429v16.785H223.6v-16.785zM92.805 184.22h25.429c4.143 0 7.5-3.357 7.5-7.5v-63.571c0-4.143-3.357-7.5-7.5-7.5H92.805a7.499 7.499 0 0 0-7.5 7.5v63.571a7.5 7.5 0 0 0 7.5 7.5zm7.5-63.572h10.429v16.785h-10.429v-16.785zm0 31.786h10.429v16.786h-10.429v-16.786zm115.796 31.786h25.429c4.143 0 7.5-3.357 7.5-7.5v-63.571c0-4.143-3.357-7.5-7.5-7.5h-25.429a7.499 7.499 0 0 0-7.5 7.5v63.571a7.5 7.5 0 0 0 7.5 7.5zm7.5-63.572h10.429v16.785h-10.429v-16.785zm-.001 31.786h10.429v16.786H223.6v-16.786z"/><path d="M292.986 78.946l-19.675-42.793a7.5 7.5 0 0 0-6.814-4.367h-17.468V7.5c0-4.143-3.357-7.5-7.5-7.5H216.1a7.499 7.499 0 0 0-7.5 7.5v24.286H67.837a7.497 7.497 0 0 0-6.814 4.367L41.348 78.946c-2.282 4.966 1.354 10.633 6.814 10.633h12.175v237.255c0 4.143 3.357 7.5 7.5 7.5h198.66c4.143 0 7.5-3.357 7.5-7.5V89.579h12.175c5.466 0 9.094-5.673 6.814-10.633zM223.601 15h10.429v16.786h-10.429V15zm-34.884 304.334h-43.1v-76.773h43.1v76.773zm70.28 0h-55.28v-84.273c0-4.143-3.357-7.5-7.5-7.5h-58.1a7.499 7.499 0 0 0-7.5 7.5v84.273h-55.28V212.421h183.66v106.913zm-113.38-122.843v-75.843h43.1v75.843h-43.1zm113.38 0h-55.28v-83.343c0-4.143-3.357-7.5-7.5-7.5h-58.1a7.499 7.499 0 0 0-7.5 7.5v83.343h-55.28V89.579h183.66v106.912zM59.865 74.579l12.778-27.793H261.69l12.778 27.793H59.865z"/></svg>