<svg xmlns="http://www.w3.org/2000/svg" viewBox="0 0 268.567 268.567"><path d="M251.377 168.219h-33.962v-40.564h28.81c6.702 0 10.029-8.154 5.26-12.847L136.97 2.154a7.5 7.5 0 0 0-10.52 0L11.937 114.808c-4.777 4.699-1.432 12.847 5.26 12.847h28.809v133.412a7.5 7.5 0 0 0 7.5 7.5h50.216a7.5 7.5 0 0 0 7.5-7.5v-55.115h40.977v55.115a7.5 7.5 0 0 0 7.5 7.5h91.678a7.5 7.5 0 0 0 7.5-7.5v-85.348a7.5 7.5 0 0 0-7.5-7.5zm-73.5 7.499v77.848h-10.678v-55.115a7.5 7.5 0 0 0-7.5-7.499h-55.977a7.5 7.5 0 0 0-7.5 7.5v55.115H61.006V120.154a7.5 7.5 0 0 0-7.5-7.5H35.515l96.196-94.632 96.195 94.632h-17.991a7.5 7.5 0 0 0-7.5 7.5v48.064h-17.038a7.5 7.5 0 0 0-7.5 7.5zm66 77.848h-51v-13.449h51v13.449zm0-28.449h-51v-13.449h51v13.449zm0-28.449h-51v-13.449h51v13.449z"/></svg>