<svg xmlns="http://www.w3.org/2000/svg" viewBox="0 0 256.17 256.17"><path d="M254.943 246.737L215.407 98.456a7.5 7.5 0 0 0-7.247-5.567h-29.117c5.652-15.026 8.42-26.05 8.42-33.511C187.463 26.637 160.826 0 128.085 0S68.707 26.637 68.707 59.378c0 7.46 2.768 18.486 8.42 33.511H48.01a7.5 7.5 0 0 0-7.247 5.567L1.227 246.737c-1.269 4.757 2.322 9.433 7.247 9.433h239.223c4.923 0 8.515-4.674 7.246-9.433zM128.085 15c24.47 0 44.378 19.908 44.378 44.378 0 21.312-34.5 88.393-44.378 107.16-9.858-18.73-44.378-85.839-44.378-107.16 0-24.47 19.908-44.378 44.378-44.378zm-6.574 171.05c2.81 5.115 10.259 5.277 13.197-.091 6.737-12.31 16.84-31.855 24.816-48.418h18.46l18.386 73.967H59.8l18.386-73.967h18.459c7.911 16.432 18.598 37.101 24.866 48.509zM18.235 241.17l35.537-133.281h29.381a604.718 604.718 0 0 0 6.46 14.652H72.322a7.5 7.5 0 0 0-7.278 5.69L42.93 217.198c-1.176 4.732 2.411 9.31 7.278 9.31h155.754c4.875 0 8.452-4.585 7.278-9.31l-22.114-88.967a7.5 7.5 0 0 0-7.278-5.69h-17.291a604.98 604.98 0 0 0 6.46-14.652h29.381l35.537 133.281h-219.7z"/><path d="M158.32 59.378c0-16.672-13.563-30.235-30.235-30.235S97.85 42.707 97.85 59.378c0 16.677 13.563 30.245 30.235 30.245s30.235-13.568 30.235-30.245zm-45.47 0c0-8.4 6.834-15.235 15.235-15.235s15.235 6.835 15.235 15.235c0 8.406-6.835 15.245-15.235 15.245-8.401 0-15.235-6.839-15.235-15.245z"/></svg>