<svg xmlns="http://www.w3.org/2000/svg" viewBox="0 0 268.565 268.565"><path d="M185.081 0H83.484c-20.678 0-37.5 16.822-37.5 37.5v193.565c0 20.678 16.822 37.5 37.5 37.5H185.08c20.678 0 37.5-16.822 37.5-37.5V37.5C222.581 16.822 205.758 0 185.081 0zM83.484 15H185.08c9.777 0 18.114 6.271 21.21 15H62.275c3.096-8.729 11.433-15 21.209-15zm124.097 216.065c0 12.407-10.094 22.5-22.5 22.5H83.484c-12.406 0-22.5-10.093-22.5-22.5v-5.771H207.58v5.771zm0-20.771H60.984V45H207.58v165.294z"/><path d="M90.455 189.575h87.652a7.5 7.5 0 0 0 7.5-7.5V111.36a7.555 7.555 0 0 0-2.575-5.657l-43.826-38.14a7.502 7.502 0 0 0-9.848 0l-43.826 38.14c-.032.028-.056.061-.088.089a7.523 7.523 0 0 0-2.489 5.569v70.714a7.5 7.5 0 0 0 7.5 7.5zm43.828-106.412l23.783 20.698H110.5l23.783-20.698zM97.955 118.86h72.652v32.708h-9.776v-14.27a7.5 7.5 0 0 0-7.5-7.499h-38.1a7.5 7.5 0 0 0-7.5 7.5v14.27h-9.776V118.86zm47.877 25.938v6.77h-23.1v-6.77h23.1zm-47.877 21.771h72.652v8.006H97.955v-8.006z"/><circle cx="134.283" cy="239.283" r="10"/><path d="M86.794 241.015l11.321 6.536c1.333.77 3-.192 3-1.732v-13.072c0-1.54-1.667-2.502-3-1.732l-11.321 6.536c-1.333.77-1.333 2.694 0 3.464zm83.705 6.268h16.4a1.6 1.6 0 0 0 1.6-1.6v-12.8a1.6 1.6 0 0 0-1.6-1.6h-16.4a1.6 1.6 0 0 0-1.6 1.6v12.8c-.001.884.716 1.6 1.6 1.6z"/></svg>