<svg xmlns="http://www.w3.org/2000/svg" viewBox="0 0 100 100"><path fill="#fff" d="M58.4 10.7c8 0 14.6 6.5 14.6 14.6v41c0 12.7-10.3 23-23 23S27 79 27 66.3v-41c0-8 6.5-14.6 14.6-14.6h16.8m0-5.7H41.6c-11.2 0-20.3 9.1-20.3 20.3v41C21.3 82.1 34.1 95 50 95c15.9 0 28.7-12.9 28.7-28.7v-41C78.7 14.1 69.6 5 58.4 5z"/><path fill="#fff" d="M50 52.5c-.3 0-.7-.1-1-.3L40.2 46c-.8-.5-1-1.6-.4-2.4.5-.8 1.6-1 2.4-.4l7.8 5.5 7.8-5.5c.8-.5 1.8-.4 2.4.4.5.8.4 1.8-.4 2.4L51 52.2c-.3.2-.7.3-1 .3zm.1 13.3c-.3 0-.7-.1-1-.3l-8.8-6.2c-.8-.5-1-1.6-.4-2.4.5-.8 1.6-1 2.4-.4l7.8 5.5 7.8-5.5c.8-.5 1.8-.4 2.4.4.5.8.4 1.8-.4 2.4l-8.8 6.2c-.3.2-.6.3-1 .3zm-.1 13c-.3 0-.7-.1-1-.3l-8.8-6.2c-.8-.5-1-1.6-.4-2.4s1.6-1 2.4-.4L50 75l7.8-5.5c.8-.5 1.8-.4 2.4.4.5.8.4 1.8-.4 2.4L51 78.5c-.3.2-.7.3-1 .3zm0-42.5c-1.9 0-3.4-1.5-3.4-3.4v-7.5c0-1.9 1.5-3.4 3.4-3.4s3.4 1.5 3.4 3.4v7.5c0 1.9-1.5 3.4-3.4 3.4z"/></svg>