<svg xmlns="http://www.w3.org/2000/svg" viewBox="0 0 355.004 355.004"><path d="M66.883 211.547l95.048-20.062a7.503 7.503 0 0 0 5.595-5.053l16.319-51.008 39.247-39.247a7.5 7.5 0 0 0 0-10.606l-40.155-40.155a7.5 7.5 0 0 0-10.607 0l-38.868 38.869-51.581 16.502a7.5 7.5 0 0 0-5.053 5.595L56.766 201.43c-2.836 6.28 3.762 12.988 10.117 10.117zm110.75-150.222l29.549 29.549-9.471 9.471-29.549-29.549 9.471-9.471zm-20.077 20.078l29.549 29.549-9.471 9.471-29.548-29.548 9.47-9.472zm-66.952 32.342l44.805-14.334 33.493 33.493-14.335 44.805-67.879 14.328 39.817-39.817a7.5 7.5 0 0 0-10.606-10.607l-39.518 39.518 14.223-67.386zm256.899 183.039H147.279c-10.66 0-16.729-12.15-10.29-20.671 13.88-18.37.76-44.714-22.258-44.714H7.5a7.5 7.5 0 0 0 0 15h107.232c10.659 0 16.729 12.149 10.29 20.671-13.879 18.369-.761 44.714 22.258 44.714h200.224a7.5 7.5 0 1 0-.001-15z"/></svg>